Coordinates
version=1
nRows=16
nColumns=40
inDegrees=yes

Units are S.I. units (second, meters, Newtons, ...)
Angles are in degrees.

endheader
time	pelvis_tilt	pelvis_list	pelvis_rotation	pelvis_tx	pelvis_ty	pelvis_tz	hip_flexion_r	hip_adduction_r	hip_rotation_r	knee_angle_r	knee_angle_r_beta	ankle_angle_r	subtalar_angle_r	mtp_angle_r	hip_flexion_l	hip_adduction_l	hip_rotation_l	knee_angle_l	knee_angle_l_beta	ankle_angle_l	subtalar_angle_l	mtp_angle_l	lumbar_extension	lumbar_bending	lumbar_rotation	arm_flex_r	arm_add_r	arm_rot_r	elbow_flex_r	pro_sup_r	wrist_flex_r	wrist_dev_r	arm_flex_l	arm_add_l	arm_rot_l	elbow_flex_l	pro_sup_l	wrist_flex_l	wrist_dev_l
     12.97750000	     -4.41216886	     -4.84970836	     -1.83828905	      0.92314718	      0.93810077	      0.40335814	     37.15050169	     -4.31963461	    -10.75650596	     50.85261738	     50.85261738	      4.45772234	    -11.42644701	      0.11172990	      9.78667409	     -4.91855112	    -17.66093693	     16.70945249	     16.70945249	     14.74102646	      1.76072678	     -3.80886343	    -10.34481584	      0.47909744	     -1.09472069	    -15.59865452	    -14.18906815	      3.18345467	     35.97486908	     45.69569266	      0.00000000	      0.00000000	     19.30577890	    -18.19799727	     -5.99576789	     52.43243267	     46.78242754	      0.00000000	      0.00000000
     12.99071429	     -4.44582607	     -4.86343580	     -2.07422756	      0.92174476	      0.93787517	      0.40367286	     37.01938582	     -3.93295236	    -11.06416038	     47.25795615	     47.25795615	      4.38556149	    -10.85178252	      0.59407222	      9.14670969	     -4.88193910	    -17.83083770	     16.36990947	     16.36990947	     15.00967551	      1.79389523	     -3.90103245	    -10.24506096	      0.36164818	     -1.09895939	    -16.20215196	    -14.31814305	      3.21836191	     35.90905249	     45.69161477	      0.00000000	      0.00000000	     19.44625054	    -18.17011557	     -6.19208703	     52.50417052	     46.80166143	      0.00000000	      0.00000000
     13.00392857	     -4.33819840	     -4.86473918	     -2.31455742	      0.92047267	      0.93779727	      0.40400719	     36.58357672	     -3.54385743	    -11.39811073	     43.52921563	     43.52921563	      4.27157289	    -10.02164686	      0.97794747	      8.27806638	     -4.80653081	    -18.07228702	     15.90048628	     15.90048628	     15.22434936	      1.90608544	     -4.09745527	    -10.31175575	      0.24658885	     -0.99082554	    -16.76382076	    -14.49015500	      3.23835409	     35.98091075	     45.68322178	      0.00000000	      0.00000000	     19.64606657	    -17.89415114	     -6.69814279	     52.47630323	     46.84831548	      0.00000000	      0.00000000
     13.01714286	     -4.33385101	     -4.85207634	     -2.52773148	      0.91920436	      0.93749283	      0.40430607	     36.14290142	     -3.18002110	    -11.80820849	     39.74449440	     39.74449440	      4.09750821	     -8.88375822	      1.42205801	      7.54391890	     -4.70714433	    -18.23850957	     15.46066512	     15.46066512	     15.39779653	      1.93233705	     -4.36776342	    -10.23385755	      0.16838209	     -0.98444984	    -17.16436288	    -14.64290478	      3.17860959	     36.05056929	     45.68105105	      0.00000000	      0.00000000	     19.67923348	    -17.59712021	     -7.23626933	     52.34143018	     46.89472533	      0.00000000	      0.00000000
     13.03035714	     -4.38994816	     -4.86226842	     -2.67751887	      0.91801360	      0.93698679	      0.40458169	     35.64397607	     -2.77294243	    -12.22560812	     35.95214282	     35.95214282	      3.89621600	     -7.63936093	      2.06614145	      6.90790701	     -4.63207434	    -18.30092258	     15.07177749	     15.07177749	     15.63564950	      1.95758355	     -4.55606638	    -10.08978429	      0.15471554	     -1.00136477	    -17.41009858	    -14.81052153	      3.10109632	     36.02899466	     45.68476946	      0.00000000	      0.00000000	     19.51455260	    -17.35026696	     -7.43806813	     52.25164256	     46.90957504	      0.00000000	      0.00000000
     13.04357143	     -4.31727798	     -4.79522372	     -2.81633339	      0.91704792	      0.93652691	      0.40486261	     34.92502695	     -2.45981108	    -12.67640861	     32.28580828	     32.28580828	      3.75648322	     -6.00827690	      2.81504477	      6.06224165	     -4.45101949	    -18.41871334	     14.57838854	     14.57838854	     15.83988836	      2.04865534	     -4.82934042	    -10.06092573	      0.07989061	     -0.99834636	    -17.49717951	    -14.93521793	      2.96927359	     36.02951753	     45.69205612	      0.00000000	      0.00000000	     19.35778814	    -17.07072418	     -7.73394332	     52.10350061	     46.93199629	      0.00000000	      0.00000000
     13.05678571	     -4.29740325	     -4.67758477	     -2.91281245	      0.91613911	      0.93586711	      0.40513502	     34.22511012	     -2.19076665	    -13.09920819	     28.82423384	     28.82423384	      3.55203076	     -4.37440468	      3.73384849	      5.30488810	     -4.22507770	    -18.52209919	     14.13004972	     14.13004972	     16.02459512	      2.17028540	     -5.09446111	     -9.98834221	     -0.00513581	     -1.02898570	    -17.50252929	    -15.02780600	      2.82769355	     36.03057026	     45.70043314	      0.00000000	      0.00000000	     19.10085063	    -16.77402844	     -7.91539753	     51.92091352	     46.94363308	      0.00000000	      0.00000000
     13.07000000	     -4.23555910	     -4.57241761	     -2.93871379	      0.91550142	      0.93511701	      0.40545183	     33.41589853	     -1.93560354	    -13.58608325	     25.63188248	     25.63188248	      3.39144195	     -2.70439192	      4.77494190	      4.48224916	     -4.01075869	    -18.58467424	     13.66440483	     13.66440483	     16.27177775	      2.33426647	     -5.38499203	     -9.89462057	     -0.11488081	     -1.10597666	    -17.41958945	    -15.11817419	      2.66647638	     36.06808931	     45.70911535	      0.00000000	      0.00000000	     18.77734291	    -16.45617499	     -8.01590636	     51.70091404	     46.94526330	      0.00000000	      0.00000000
     13.08321429	     -4.09997129	     -4.39195596	     -2.90897738	      0.91503592	      0.93430535	      0.40571803	     32.54812183	     -1.81203377	    -14.09534905	     22.88555894	     22.88555894	      3.35364626	     -0.99535414	      6.01196945	      3.57617137	     -3.71703515	    -18.62162622	     13.20079788	     13.20079788	     16.48697837	      2.60063553	     -5.72979891	     -9.89328063	     -0.21754326	     -1.20778818	    -17.22324158	    -15.19927962	      2.45469038	     36.12871644	     45.72060791	      0.00000000	      0.00000000	     18.40701390	    -16.15254386	     -8.09042503	     51.38805514	     46.94339093	      0.00000000	      0.00000000
     13.09642857	     -3.98668043	     -4.18141900	     -2.83304788	      0.91474021	      0.93333372	      0.40601290	     31.73688928	     -1.74988118	    -14.59676490	     20.63148405	     20.63148405	      3.38755466	      0.51037739	      7.38918387	      2.71577422	     -3.40636122	    -18.64968770	     12.78462977	     12.78462977	     16.72225459	      2.87308499	     -6.10558784	     -9.84018274	     -0.35578028	     -1.34088278	    -16.95771041	    -15.25132130	      2.20572803	     36.24048164	     45.73254307	      0.00000000	      0.00000000	     17.98892992	    -15.86057333	     -8.09461253	     51.00751564	     46.93269929	      0.00000000	      0.00000000
     13.10964286	     -3.88745745	     -3.96178430	     -2.69757197	      0.91456473	      0.93221169	      0.40632701	     30.96504517	     -1.72375161	    -15.03072383	     18.85783976	     18.85783976	      3.46654665	      1.69778007	      8.77179719	      1.90733678	     -3.10920932	    -18.63243305	     12.44684063	     12.44684063	     16.99314538	      3.18877694	     -6.46467400	     -9.75983999	     -0.46355636	     -1.49549221	    -16.63647125	    -15.28779513	      1.93083902	     36.39674198	     45.74439751	      0.00000000	      0.00000000	     17.51878800	    -15.56972425	     -8.00768718	     50.54804419	     46.91412882	      0.00000000	      0.00000000
     13.12285714	     -3.89454012	     -3.71030336	     -2.54365166	      0.91447918	      0.93081181	      0.40674383	     30.29678710	     -1.72087899	    -15.28643294	     17.46497862	     17.46497862	      3.45007627	      2.44737474	      9.73567563	      1.27322586	     -2.81559065	    -18.59372846	     12.23387760	     12.23387760	     17.33704079	      3.45023464	     -6.73258769	     -9.53815874	     -0.60666248	     -1.59696845	    -16.26868275	    -15.28673237	      1.71534978	     36.62464794	     45.75015439	      0.00000000	      0.00000000	     17.02226011	    -15.33735702	     -7.86411616	     50.10944078	     46.89060551	      0.00000000	      0.00000000
     13.13607143	     -3.83531957	     -3.53393978	     -2.30663126	      0.91460333	      0.92947459	      0.40714588	     29.69838674	     -1.78903168	    -15.72399951	     16.87526127	     16.87526127	      4.30731452	      3.21963010	     12.79676192	      0.55283075	     -2.62647348	    -18.61401278	     12.01209619	     12.01209619	     17.65506611	      3.94372763	     -7.16334754	     -9.36821679	     -0.62560014	     -1.58275607	    -16.09214094	    -15.16267191	      0.49095352	     37.16048243	     45.79506010	      0.00000000	      0.00000000	     16.78330273	    -14.99809799	     -7.20390694	     48.92442866	     46.80845980	      0.00000000	      0.00000000
     13.14928571	     -3.84229483	     -3.39014222	     -2.03606720	      0.91482918	      0.92797068	      0.40766459	     28.97262508	     -1.71206006	    -15.74618245	     16.16871019	     16.16871019	      4.10857295	      3.19275658	     12.93647165	     -0.01085650	     -2.49401332	    -18.39074186	     11.97138779	     11.97138779	     18.09988851	      4.08339298	     -7.24427993	     -9.14442848	     -0.59175098	     -1.70124442	    -15.62239165	    -15.20700921	      0.31113873	     37.47194604	     45.79547337	      0.00000000	      0.00000000	     16.12033108	    -14.73513005	     -7.00767706	     48.49816661	     46.77790499	      0.00000000	      0.00000000
     13.16250000	     -3.84140210	     -3.28676210	     -1.71031728	      0.91522330	      0.92643734	      0.40824935	     28.23689080	     -1.63144907	    -15.72673611	     15.78287477	     15.78287477	      3.87493959	      2.91097447	     12.72043930	     -0.60035686	     -2.42120663	    -18.18013289	     11.91036079	     11.91036079	     18.59025154	      4.30632047	     -7.20245638	     -8.90591737	     -0.51997514	     -1.97384484	    -15.08620271	    -15.26807780	      0.04811089	     37.95495906	     45.79372683	      0.00000000	      0.00000000	     15.38184521	    -14.56900458	     -6.74513901	     47.86898182	     46.73766034	      0.00000000	      0.00000000
     13.17571429	     -3.89157051	     -3.16976530	     -1.36764932	      0.91571418	      0.92473760	      0.40895353	     27.51344177	     -1.51308841	    -15.36749002	     15.46264210	     15.46264210	      2.75540978	      2.00981931	      9.82726442	     -1.01763407	     -2.41103789	    -18.05530603	     12.15307179	     12.15307179	     19.56976287	      4.77319176	     -6.14455257	     -8.63049643	     -0.43185254	     -1.81674078	    -15.01983166	    -15.22901033	     -0.81565548	     39.15877419	     45.78602610	      0.00000000	      0.00000000	     14.96118551	    -14.30435376	     -5.90028731	     46.80593530	     46.63235917	      0.00000000	      0.00000000
